<svg width="201" height="200" viewBox="0 0 201 200" fill="none" xmlns="http://www.w3.org/2000/svg">
<path d="M156.5 26C155.97 26 155.461 26.2107 155.086 26.5858C154.711 26.9609 154.5 27.4696 154.5 28C154.5 28.5304 154.711 29.0391 155.086 29.4142C155.461 29.7893 155.97 30 156.5 30C157.03 30 157.539 29.7893 157.914 29.4142C158.289 29.0391 158.5 28.5304 158.5 28C158.5 27.4696 158.289 26.9609 157.914 26.5858C157.539 26.2107 157.03 26 156.5 26Z" fill="#F9A825"/>
<path d="M100.5 24C80.3435 24 61.0126 32.0071 46.7599 46.2599C32.5071 60.5126 24.5 79.8435 24.5 100C24.5 120.156 32.5071 139.487 46.7599 153.74C61.0126 167.993 80.3435 176 100.5 176C120.656 176 139.987 167.993 154.24 153.74C168.493 139.487 176.5 120.156 176.5 100C176.5 79.8435 168.493 60.5126 154.24 46.2599C139.987 32.0071 120.656 24 100.5 24Z" fill="#F1F1F6"/>
<path d="M168.5 24C166.378 24 164.343 24.8429 162.843 26.3431C161.343 27.8434 160.5 29.8783 160.5 32C160.5 34.1217 161.343 36.1566 162.843 37.6569C164.343 39.1571 166.378 40 168.5 40C170.622 40 172.657 39.1571 174.157 37.6569C175.657 36.1566 176.5 34.1217 176.5 32C176.5 29.8783 175.657 27.8434 174.157 26.3431C172.657 24.8429 170.622 24 168.5 24Z" fill="#F9A825"/>
<path d="M28.5 48C27.4391 48 26.4217 48.4214 25.6716 49.1716C24.9214 49.9217 24.5 50.9391 24.5 52C24.5 53.0609 24.9214 54.0783 25.6716 54.8284C26.4217 55.5786 27.4391 56 28.5 56C29.5609 56 30.5783 55.5786 31.3284 54.8284C32.0786 54.0783 32.5 53.0609 32.5 52C32.5 50.9391 32.0786 49.9217 31.3284 49.1716C30.5783 48.4214 29.5609 48 28.5 48Z" fill="#3369FF"/>
<path d="M156.5 150C155.439 150 154.422 150.421 153.672 151.172C152.921 151.922 152.5 152.939 152.5 154C152.5 155.061 152.921 156.078 153.672 156.828C154.422 157.579 155.439 158 156.5 158C157.561 158 158.578 157.579 159.328 156.828C160.079 156.078 160.5 155.061 160.5 154C160.5 152.939 160.079 151.922 159.328 151.172C158.578 150.421 157.561 150 156.5 150ZM34.5 148C32.3783 148 30.3434 148.843 28.8431 150.343C27.3429 151.843 26.5 153.878 26.5 156C26.5 158.122 27.3429 160.157 28.8431 161.657C30.3434 163.157 32.3783 164 34.5 164C36.6217 164 38.6566 163.157 40.1569 161.657C41.6571 160.157 42.5 158.122 42.5 156C42.5 153.878 41.6571 151.843 40.1569 150.343C38.6566 148.843 36.6217 148 34.5 148Z" fill="#F9A825"/>
<path d="M48.5 162C47.4391 162 46.4217 162.421 45.6716 163.172C44.9214 163.922 44.5 164.939 44.5 166C44.5 167.061 44.9214 168.078 45.6716 168.828C46.4217 169.579 47.4391 170 48.5 170C49.5609 170 50.5783 169.579 51.3284 168.828C52.0786 168.078 52.5 167.061 52.5 166C52.5 164.939 52.0786 163.922 51.3284 163.172C50.5783 162.421 49.5609 162 48.5 162Z" fill="#3369FF"/>
<path d="M133.466 152.068C132.814 152.068 132.168 152.196 131.566 152.446C130.963 152.696 130.416 153.061 129.955 153.522C129.493 153.984 129.128 154.531 128.878 155.134C128.628 155.736 128.5 156.382 128.5 157.034C128.5 157.686 128.628 158.332 128.878 158.934C129.128 159.537 129.493 160.084 129.955 160.545C130.416 161.007 130.963 161.372 131.566 161.622C132.168 161.872 132.814 162 133.466 162C134.118 162 134.764 161.872 135.366 161.622C135.969 161.372 136.516 161.007 136.977 160.545C137.439 160.084 137.804 159.537 138.054 158.934C138.304 158.332 138.432 157.686 138.432 157.034C138.432 156.382 138.304 155.736 138.054 155.134C137.804 154.531 137.439 153.984 136.977 153.522C136.516 153.061 135.969 152.696 135.366 152.446C134.764 152.196 134.118 152.068 133.466 152.068ZM32.5 94C31.9696 94 31.4609 94.2107 31.0858 94.5858C30.7107 94.9609 30.5 95.4696 30.5 96C30.5 96.5304 30.7107 97.0391 31.0858 97.4142C31.4609 97.7893 31.9696 98 32.5 98C33.0304 98 33.5391 97.7893 33.9142 97.4142C34.2893 97.0391 34.5 96.5304 34.5 96C34.5 95.4696 34.2893 94.9609 33.9142 94.5858C33.5391 94.2107 33.0304 94 32.5 94Z" fill="white"/>
<path d="M172.5 60C171.97 60 171.461 60.2107 171.086 60.5858C170.711 60.9609 170.5 61.4696 170.5 62C170.5 62.5304 170.711 63.0391 171.086 63.4142C171.461 63.7893 171.97 64 172.5 64C173.03 64 173.539 63.7893 173.914 63.4142C174.289 63.0391 174.5 62.5304 174.5 62C174.5 61.4696 174.289 60.9609 173.914 60.5858C173.539 60.2107 173.03 60 172.5 60Z" fill="#F9A825"/>
<path d="M160.5 128C159.439 128 158.422 128.421 157.672 129.172C156.921 129.922 156.5 130.939 156.5 132C156.5 133.061 156.921 134.078 157.672 134.828C158.422 135.579 159.439 136 160.5 136C161.561 136 162.578 135.579 163.328 134.828C164.079 134.078 164.5 133.061 164.5 132C164.5 130.939 164.079 129.922 163.328 129.172C162.578 128.421 161.561 128 160.5 128Z" fill="white"/>
<path d="M65.2739 141.304C63.2499 141.304 61.3479 140.516 59.9159 139.084C58.4259 137.596 57.6399 135.618 57.6979 133.514C57.7559 131.41 58.6519 129.478 60.2199 128.076L107.878 83.4698L107.442 82.6778C103.96 76.3318 105.14 69.7398 110.76 64.1198C116.102 58.7818 124.37 55.1958 131.342 55.1958C135.23 55.1958 138.414 56.3218 140.546 58.4518C147.226 65.1318 142.906 80.2078 134.876 88.2358C131.362 91.7498 127.56 93.5298 123.578 93.5298C121.156 93.5298 118.714 92.8638 116.322 91.5518L115.53 91.1158L70.9399 138.756C69.4879 140.382 67.4279 141.304 65.2739 141.304Z" fill="#3369FF"/>
<path d="M65.2741 142.706C62.8781 142.706 60.6241 141.77 58.9261 140.076C57.1641 138.312 56.2301 135.968 56.3001 133.476C56.3681 130.986 57.4281 128.696 59.2881 127.034L106.13 83.1899C102.428 76.2999 103.72 69.1839 109.772 63.1319C115.358 57.5479 124.028 53.7959 131.344 53.7959C135.612 53.7959 139.136 55.0639 141.538 57.4619C148.888 64.8119 144.524 80.5739 135.87 89.2279C132.084 93.0119 127.95 94.9319 123.58 94.9319C120.972 94.9319 118.362 94.2379 115.812 92.8699L71.9641 139.714C70.2721 141.608 67.8241 142.706 65.2741 142.706ZM131.344 56.5959C124.72 56.5959 116.848 60.0179 111.752 65.1119C106.534 70.3279 105.468 76.1679 108.67 82.0039L109.63 83.7459L61.1781 129.098C59.8761 130.264 59.1441 131.838 59.1001 133.552C59.0521 135.268 59.6941 136.882 60.9061 138.094C63.3181 140.506 67.6061 140.388 69.9001 137.824L115.256 89.3659L117 90.3259C122.77 93.4879 128.682 92.4519 133.888 87.2459C141.422 79.7119 145.516 65.4019 139.558 59.4419C137.694 57.5799 134.854 56.5959 131.344 56.5959Z" fill="#2770C4"/>
<path d="M65.2739 141.304C63.2499 141.304 61.3479 140.516 59.9159 139.084C58.4259 137.596 57.6399 135.618 57.6979 133.514C57.7559 131.41 58.6519 129.478 60.2199 128.076L89.0739 101.07L97.926 109.926L70.9419 138.758C69.4879 140.382 67.4279 141.304 65.2739 141.304Z" fill="#F9A825"/>
<path d="M65.2741 142.706C62.8781 142.706 60.6241 141.77 58.9261 140.076C57.1641 138.312 56.2301 135.968 56.3001 133.476C56.3681 130.986 57.4281 128.696 59.2881 127.034L89.1081 99.124L99.8761 109.896L71.9661 139.716C70.2721 141.608 67.8241 142.706 65.2741 142.706ZM89.0421 103.018L61.1781 129.098C59.8761 130.264 59.1441 131.838 59.1001 133.552C59.0521 135.268 59.6941 136.882 60.9061 138.094C63.3181 140.506 67.6061 140.388 69.9001 137.824L95.9801 109.956L89.0421 103.018Z" fill="#2770C4"/>
<path d="M133.628 141.304C131.396 141.304 129.262 140.35 127.774 138.686L101.306 110.02L100.514 110.438C99.1621 111.162 97.8421 111.492 96.5161 111.492C94.3501 111.492 92.3141 110.65 90.7841 109.118L66.4301 84.7678C58.5461 76.8798 58.2781 64.2178 65.6301 56.0098L114.086 104.466L138.844 127.584C140.488 129.054 141.416 131.056 141.476 133.234C141.536 135.414 140.722 137.462 139.18 139.004C137.696 140.486 135.724 141.304 133.628 141.304Z" fill="#3369FF"/>
<path d="M133.626 142.706C130.998 142.706 128.484 141.58 126.73 139.62L101.008 111.762C97.112 113.776 92.678 112.996 89.796 110.112L65.44 85.7581C57.062 77.3761 56.686 63.8981 64.586 55.0761L65.572 53.9741L115.076 103.476L139.796 126.56C141.7 128.264 142.802 130.626 142.874 133.194C142.944 135.764 141.984 138.178 140.166 139.992C138.42 141.742 136.098 142.706 133.626 142.706ZM101.606 108.282L128.804 137.738C131.204 140.424 135.672 140.53 138.188 138.016C139.456 136.75 140.126 135.066 140.074 133.276C140.026 131.484 139.256 129.834 137.908 128.63L113.13 105.49L65.724 58.0861C59.81 65.7841 60.442 76.7981 67.42 83.7781L91.776 108.132C93.834 110.194 96.964 110.756 99.856 109.206L101.606 108.282Z" fill="#2770C4"/>
<path d="M133.628 141.304C131.396 141.304 129.262 140.35 127.774 138.686L105.912 115.006L115.31 105.608L138.844 127.582C140.488 129.052 141.414 131.054 141.476 133.232C141.536 135.412 140.72 137.46 139.18 139.002C137.696 140.486 135.724 141.304 133.628 141.304Z" fill="#F9A825"/>
<path d="M133.626 142.706C130.998 142.706 128.484 141.58 126.73 139.62L103.97 114.968L115.274 103.664L139.796 126.56C141.698 128.262 142.8 130.624 142.874 133.192C142.944 135.762 141.984 138.176 140.166 139.992C138.42 141.74 136.098 142.706 133.626 142.706ZM107.854 115.044L128.804 137.736C131.204 140.422 135.672 140.53 138.188 138.012C139.456 136.746 140.126 135.062 140.074 133.272C140.024 131.48 139.254 129.828 137.908 128.626L115.342 107.556L107.854 115.044ZM96.38 107.83L76.416 88.366C76.2181 88.174 76.214 87.858 76.408 87.658C76.602 87.464 76.918 87.456 77.116 87.65L97.0801 107.114L96.38 107.83ZM74.492 86.29C74.366 86.29 74.24 86.244 74.142 86.148L71.298 83.376C71.1 83.184 71.0961 82.868 71.2901 82.668C71.4841 82.474 71.8001 82.464 71.9981 82.66L74.8421 85.432C75.0401 85.624 75.044 85.94 74.85 86.14C74.752 86.238 74.624 86.29 74.492 86.29ZM69.708 81.624C69.582 81.624 69.4561 81.578 69.3581 81.482C67.9341 80.096 66.8181 78.39 66.0401 76.416C63.8561 70.868 65.01 65.056 65.06 64.812C65.114 64.538 65.3841 64.376 65.6501 64.422C65.9221 64.478 66.0961 64.742 66.0401 65.012C66.0281 65.07 64.8981 70.784 66.9701 76.05C67.6961 77.894 68.736 79.48 70.058 80.768C70.256 80.96 70.2601 81.276 70.0661 81.476C69.9661 81.572 69.838 81.624 69.708 81.624ZM138.462 71.638C138.43 71.638 138.398 71.634 138.362 71.628C138.092 71.574 137.916 71.31 137.972 71.038C138.752 67.164 138.218 64.018 136.468 62.178C136.278 61.978 136.286 61.662 136.488 61.47C136.688 61.28 137.004 61.29 137.196 61.49C139.174 63.572 139.8 67.032 138.954 71.236C138.904 71.474 138.698 71.638 138.462 71.638ZM135.17 80.01C135.084 80.01 134.998 79.988 134.92 79.944C134.68 79.806 134.6 79.498 134.736 79.26C135.768 77.48 136.596 75.672 137.198 73.884C137.29 73.622 137.574 73.49 137.832 73.57C138.094 73.66 138.234 73.944 138.146 74.204C137.52 76.054 136.664 77.922 135.602 79.758C135.51 79.92 135.342 80.01 135.17 80.01ZM123.072 89.128C122.292 89.128 121.576 89.026 120.934 88.87C115.26 87.494 111.272 81.076 110.636 77.866C110.582 77.594 110.758 77.33 111.028 77.278C111.308 77.228 111.564 77.4 111.616 77.67C112.192 80.57 115.984 86.64 121.17 87.898C125.124 88.852 129.074 86.91 132.898 82.106C133.068 81.89 133.386 81.854 133.6 82.026C133.816 82.198 133.852 82.512 133.68 82.728C129.678 87.76 125.948 89.128 123.072 89.128Z" fill="#2770C4"/>
<path d="M133.862 135.978C131.76 135.978 129.92 133.738 129.84 133.638L117.816 120.646C117.628 120.442 117.64 120.126 117.844 119.938C118.048 119.754 118.364 119.766 118.552 119.966L130.596 132.984C130.634 133.028 132.238 134.978 133.856 134.978C133.906 134.978 133.958 134.976 134.006 134.972C134.742 134.916 135.394 134.41 135.946 133.466C136.084 133.226 136.394 133.144 136.63 133.286C136.868 133.424 136.948 133.732 136.81 133.97C136.082 135.214 135.166 135.888 134.082 135.97C134.008 135.976 133.934 135.978 133.862 135.978Z" fill="#2770C4"/>
<path d="M115.572 117.984C115.438 117.984 115.304 117.93 115.204 117.824L112.284 114.67C112.096 114.466 112.108 114.15 112.312 113.962C112.516 113.776 112.83 113.79 113.02 113.99L115.94 117.144C116.128 117.348 116.116 117.664 115.912 117.852C115.816 117.94 115.694 117.984 115.572 117.984Z" fill="#2770C4"/>
<path d="M65.906 135.978C65.834 135.978 65.76 135.976 65.688 135.97C64.604 135.888 63.688 135.214 62.96 133.97C62.822 133.732 62.902 133.426 63.14 133.286C63.374 133.144 63.682 133.226 63.824 133.466C64.374 134.41 65.028 134.916 65.764 134.972C67.378 135.124 69.138 133.03 69.152 133.01L71.824 130.122C72.014 129.924 72.33 129.912 72.532 130.094C72.736 130.282 72.746 130.598 72.56 130.802L69.91 133.666C69.848 133.738 68.006 135.978 65.906 135.978Z" fill="#2770C4"/>
<path d="M75.5561 127.32C75.4341 127.32 75.3121 127.276 75.2161 127.188C75.0121 127 75.0021 126.684 75.1881 126.48L86.7461 113.99C86.9381 113.79 87.2521 113.778 87.4541 113.962C87.6581 114.15 87.6681 114.466 87.4821 114.67L75.9241 127.16C75.8241 127.266 75.6921 127.32 75.5561 127.32Z" fill="#2770C4"/>
</svg>
